#!OML:ASF E:\inclinewalkrobotboard\Project 1\Capture day 1\Session 1\subject1.ASF
:FULLY-SPECIFIED
:DEGREES
205
root 8.04365 19.2555 21.2754 -163.395 -0.740209 177.653
lowerback 4.50712 -1.42673 -6.29426
upperback 3.78934 -2.35417 2.2856
thorax 1.74685 -1.45449 5.97509
lowerneck -5.92159 -0.407818 -3.71421
upperneck 17.8272 0.106923 3.34956
head 6.3784 0.361416 1.72802
rclavicle -3.37934e-014 1.35174e-014
rhumerus -54.2192 -37.0578 -54.4682
rradius 18.5729
rwrist 28.4575
rhand -13.2067 -37.4101
rfingers 7.12502
rthumb 12.894 -66.9917
lclavicle -3.37934e-014 1.35174e-014
lhumerus -22.9064 -0.58126 89.6982
lradius 32.9163
lwrist -20.2064
lhand -27.0546 -20.7297
lfingers 7.12502
lthumb -0.472843 9.24953
rfemur -51.5487 5.3201 17.699
rtibia 48.1864
rfoot -30.6264 -7.95702
rtoes -10.7592
lfemur -5.95684 -8.62886 -23.3875
ltibia 24.9359
lfoot -5.60687 -0.928154
ltoes -58.1843
206
root 8.08246 19.3621 21.048 -163.008 -0.454491 177.646
lowerback 4.39144 -1.23917 -6.03227
upperback 3.59503 -2.0696 2.24089
thorax 1.55325 -1.28391 5.77344
lowerneck -5.8073 -0.437326 -3.75396
upperneck 17.5515 0.0584058 3.30814
head 6.27285 0.325086 1.71356
rclavicle -1.59028e-015 -3.97569e-016
rhumerus -50.5212 -33.6723 -59.7993
rradius 20.6988
rwrist 24.3192
rhand -13.6211 -37.3798
rfingers 7.12502
rthumb 12.4944 -66.9863
lclavicle -1.59028e-015 -3.97569e-016
lhumerus -23.7543 0.0269499 89.5174
lradius 31.4114
lwrist -20.9371
lhand -26.7014 -20.7853
lfingers 7.12502
lthumb -0.131709 9.19442
rfemur -50.3501 5.8526 17.7649
rtibia 47.0327
rfoot -30.9949 -8.07997
rtoes -11.8327
lfemur -7.78766 -7.97713 -23.3045
ltibia 28.9857
lfoot -2.45543 0.615182
ltoes -57.3271
207
root 8.11831 19.4659 20.8268 -162.878 -0.0780574 177.562
lowerback 4.52373 -1.02359 -5.92698
upperback 3.39566 -1.77123 2.17627
thorax 1.22255 -1.10742 5.64645
lowerneck -5.60809 -0.462658 -3.74318
upperneck 17.3455 0.0294752 3.20107
head 6.17437 0.300692 1.67228
rclavicle -6.16232e-015 -1.35174e-014
rhumerus -47.7204 -30.8059 -63.5974
rradius 22.732
rwrist 21.4794
rhand -14.5375 -36.5224
rfingers 7.12502
rthumb 11.6108 -66.1807
lclavicle -6.16232e-015 -1.35174e-014
lhumerus -24.938 0.591542 89.3189
lradius 30.4132
lwrist -21.431
lhand -26.2682 -20.6157
lfingers 7.12502
lthumb 0.28674 9.36385
rfemur -48.8574 6.36398 17.7692
rtibia 45.8159
rfoot -31.2843 -7.90628
rtoes -12.0021
lfemur -9.80531 -7.23162 -23.445
ltibia 33.7151
lfoot 0.984114 2.17444
ltoes -60.0446
208
root 8.15303 19.561 20.6019 -163.006 0.284033 177.596
lowerback 4.54948 -0.809972 -5.85115
upperback 3.39787 -1.48645 2.21694
thorax 1.16863 -0.962678 5.63905
lowerneck -5.55208 -0.444035 -3.74361
upperneck 17.1195 0.0557163 3.08954
head 6.09262 0.298657 1.63534
rclavicle -3.33958e-014 2.38542e-014
rhumerus -44.864 -28.143 -66.7184
rradius 24.5282
rwrist 19.2699
rhand -15.8997 -35.8906
rfingers 7.12502
rthumb 10.2969 -65.6185
lclavicle -3.33958e-014 2.38542e-014
lhumerus -25.8916 1.20003 89.2159
lradius 29.3647
lwrist -21.612
lhand -25.764 -20.4213
lfingers 7.12502
lthumb 0.773641 9.55707
rfemur -47.0041 7.0378 17.9044
rtibia 44.467
rfoot -31.5073 -7.68068
rtoes -11.7501
lfemur -11.9022 -6.32839 -23.5038
ltibia 38.7373
lfoot 4.42246 3.15474
ltoes -62.4091
209
root 8.1895 19.6459 20.3749 -163.16 0.645661 177.893
lowerback 4.46004 -0.866951 -5.59479
upperback 3.39608 -1.15589 2.29966
thorax 1.1812 -0.628936 5.57111
lowerneck -5.67355 -0.40537 -3.76547
upperneck 17.1111 0.115688 3.04634
head 6.10914 0.32147 1.62951
rclavicle -5.96354e-016 6.75868e-015
rhumerus -42.0532 -25.3797 -69.4285
rradius 26.3611
rwrist 16.2508
rhand -15.6687 -36.9809
rfingers 7.12502
rthumb 10.5198 -66.6977
lclavicle -5.96354e-016 6.75868e-015
lhumerus -26.8179 1.72061 89.0701
lradius 28.2815
lwrist -21.4644
lhand -25.2396 -20.2749
lfingers 7.12502
lthumb 1.28018 9.701
rfemur -45.1148 7.84186 18.3681
rtibia 43.1047
rfoot -31.7619 -7.49609
rtoes -11.2081
lfemur -14.2737 -5.19119 -23.2601
ltibia 43.675
lfoot 6.02776 2.47671
ltoes -65.4461
210
root 8.22704 19.727 20.1531 -163.39 0.930752 178.243
lowerback 4.45582 -0.701712 -5.29369
upperback 3.37558 -0.92516 2.38396
thorax 1.12455 -0.505767 5.4812
lowerneck -5.9711 -0.364708 -3.7242
upperneck 17.2962 0.189912 2.96775
head 6.21717 0.356046 1.60614
rclavicle -3.37934e-015 1.31198e-014
rhumerus -39.2667 -22.9559 -71.6329
rradius 27.6099
rwrist 14.1977
rhand -15.678 -38.6912
rfingers 7.12502
rthumb 10.5108 -68.4084
lclavicle -3.37934e-015 1.31198e-014
lhumerus -27.8008 2.37914 88.8301
lradius 27.474
lwrist -21.4839
lhand -24.8226 -19.6395
lfingers 7.12502
lthumb 1.68295 10.3336
rfemur -43.0965 8.438 19.0055
rtibia 41.6743
rfoot -32.0622 -7.3042
rtoes -10.4842
lfemur -16.7829 -4.01191 -23.0021
ltibia 48.1024
lfoot 3.17794 2.42077
ltoes -64.9643
211
root 8.26696 19.8103 19.9384 -163.696 1.13342 178.558
lowerback 4.56059 -0.513638 -5.03933
upperback 3.37066 -0.668186 2.37725
thorax 1.02111 -0.367693 5.32226
lowerneck -6.08206 -0.378214 -3.62655
upperneck 17.3059 0.146816 3.04295
head 6.24061 0.346858 1.61129
rclavicle -4.57205e-015 -4.8901e-014
rhumerus -36.4415 -21.5901 -73.2888
rradius 28.2974
rwrist 13.128
rhand -15.9466 -39.104
rfingers 7.12502
rthumb 10.2517 -68.8342
lclavicle -4.57205e-015 -4.8901e-014
lhumerus -28.8062 3.55342 88.1748
lradius 26.5397
lwrist -22.5714
lhand -24.9347 -20.513
lfingers 7.12502
lthumb 1.57462 9.46098
rfemur -40.8748 8.84944 19.6803
rtibia 39.9727
rfoot -32.1733 -7.07887
rtoes -9.38665
lfemur -19.2981 -2.94965 -22.7968
ltibia 51.5858
lfoot -0.762658 2.43907
ltoes -64.5258
212
root 8.30982 19.8996 19.7284 -163.906 1.40005 178.959
lowerback 4.62851 -0.314308 -4.83039
upperback 3.2788 -0.404125 2.38105
thorax 0.850243 -0.226494 5.19863
lowerneck -5.92576 -0.403994 -3.666
upperneck 17.1833 0.0736829 3.27474
head 6.17615 0.326422 1.6846
rclavicle -1.98785e-016 -2.14687e-014
rhumerus -33.6695 -21.012 -74.5068
rradius 28.7496
rwrist 12.8452
rhand -16.3426 -37.9856
rfingers 7.12502
rthumb 9.86965 -67.7342
lclavicle -1.98785e-016 -2.14687e-014
lhumerus -30.0051 4.62003 87.4257
lradius 25.8368
lwrist -23.1678
lhand -25.235 -20.9025
lfingers 7.12502
lthumb 1.28456 9.07335
rfemur -38.7351 9.31808 20.4298
rtibia 38.1431
rfoot -32.1588 -6.80174
rtoes -8.3871
lfemur -21.9845 -1.9556 -22.4643
ltibia 54.1777
lfoot -3.01464 2.61285
ltoes -64.6783
213
root 8.35193 19.9904 19.5214 -163.987 1.70658 179.23
lowerback 4.65388 -0.143379 -4.80601
upperback 3.09135 -0.191472 2.40822
thorax 0.614469 -0.114061 5.20526
lowerneck -5.89634 -0.433421 -3.92135
upperneck 17.1981 0.0191988 3.57195
head 6.17699 0.30856 1.81839
rclavicle 2.78299e-015 -1.51076e-014
rhumerus -31.0783 -20.4054 -75.6053
rradius 29.5194
rwrist 12.8422
rhand -16.9223 -37.6058
rfingers 7.12502
rthumb 9.31028 -67.3802
lclavicle 2.78299e-015 -1.51076e-014
lhumerus -31.2598 5.4374 86.7566
lradius 25.1627
lwrist -23.0383
lhand -25.7715 -20.7242
lfingers 7.12502
lthumb 0.76643 9.25414
rfemur -36.8137 9.63749 20.9992
rtibia 36.3912
rfoot -32.2597 -6.53421
rtoes -8.6012
lfemur -24.8726 -1.17294 -22.2688
ltibia 56.0231
lfoot -5.70805 2.88237
ltoes -64.6149
214
root 8.39142 20.0729 19.3171 -163.952 1.94693 179.249
lowerback 4.25308 0.0178694 -4.89247
upperback 3.04901 0.025435 2.32177
thorax 0.766896 -0.014312 5.15459
lowerneck -5.91012 -0.516689 -4.12263
upperneck 16.9814 -0.1295 3.82223
head 6.11636 0.235641 1.91818
rclavicle -9.93923e-016 7.55382e-015
rhumerus -28.6236 -19.8079 -76.8179
rradius 30.8288
rwrist 12.2298
rhand -17.6625 -38.6027
rfingers 7.12502
rthumb 8.59603 -68.4077
lclavicle -9.93923e-016 7.55382e-015
lhumerus -32.0898 5.93176 86.1135
lradius 24.3377
lwrist -22.6588
lhand -25.9882 -20.2045
lfingers 7.12502
lthumb 0.557147 9.77456
rfemur -35.0938 9.61162 21.2784
rtibia 34.7363
rfoot -32.3619 -6.175
rtoes -9.16733
lfemur -28.0522 -0.740493 -22.3606
ltibia 57.4534
lfoot -8.83049 4.2716
ltoes -66.2915
215
root 8.43027 20.1481 19.1215 -163.997 1.91814 179.139
lowerback 4.11843 0.14576 -5.01076
upperback 2.93001 0.183836 2.2003
thorax 0.698903 0.0636576 5.08881
lowerneck -6.28266 -0.593785 -3.93423
upperneck 17.0957 -0.230682 3.66563
head 6.2216 0.186181 1.83213
rclavicle -4.37326e-015 -1.63003e-014
rhumerus -26.7374 -18.9371 -78.007
rradius 32.512
rwrist 10.5863
rhand -18.4221 -39.6125
rfingers 7.12502
rthumb 7.86296 -69.4463
lclavicle -4.37326e-015 -1.63003e-014
lhumerus -32.9942 6.43516 85.3581
lradius 23.5185
lwrist -22.5973
lhand -25.7679 -19.7155
lfingers 7.12502
lthumb 0.769891 10.2629
rfemur -33.3587 9.33069 21.4565
rtibia 33.2035
rfoot -32.3611 -5.81101
rtoes -9.17031
lfemur -31.6077 -0.830811 -22.523
ltibia 59.1648
lfoot -11.4688 6.20932
ltoes -67.0979
